<svg xmlns="http://www.w3.org/2000/svg" viewBox="0 0 100 100" x="0px" y="0px"><path d="M75.44,35.78l-.09-.48c-.14-1.73-.44-3.41-.91-5.02l-4.01-18.23H29.57l-4.01,18.23c-.46,1.61-.77,3.29-.91,5.02l-.09,.48h.05c-.03,.51-.05,1.02-.05,1.53,0,13.2,10.06,24.06,22.94,25.31v20.61h-12.4v5h29.81v-5h-12.4v-20.61c12.87-1.26,22.94-12.11,22.94-25.31,0-.51-.02-1.02-.05-1.53h.05Zm-25.44,21.96c-11.27,0-20.44-9.17-20.44-20.44,0-.36,.01-.77,.04-1.23v-.11s.01-.03,.01-.03l.02-.25c.11-1.37,.35-2.73,.73-4.03l.04-.15,.03-.15,3.14-14.3h32.83l3.14,14.3,.03,.15,.04,.15c.38,1.31,.62,2.66,.73,4.03l.02,.25v.02s.01,.11,.01,.11c.03,.47,.04,.87,.04,1.23,0,11.27-9.17,20.44-20.44,20.44Z"/></svg>